# xmcd
#
# Track frame offsets:
#	150
#	16060
#	27950
#	42980
#	52749
#	72073
#	84617
#	94504
#	104831
#	118315
#	133987
#	147537
#	159676
#	173995
#	189480
#	207633
#	221373
#	233822
#	249614
#	264850
#
# Disc length: 3694 seconds
#
# Revision: 1
# Processed by: cddbd v1.4PL0 Copyright (c) Steve Scherf et al.
# Submitted via: audiograbber 1.80
#
DISCID=240e6c14
DTITLE=Various Artist - Country Trakks
DYEAR=1900
DGENRE=
TTITLE0=John Denver - I'm Sorry
TTITLE1=Marie Osmond - Paper Roses
TTITLE2=Sylvia - Nobody
TTITLE3=linda Ronstadt - When Will I Be Loved
TTITLE4=Ronnie Milsap - Lost In The Fifties Tonight
TTITLE5=Hank Snow - I've Been Everywhere
TTITLE6=Jimmie Rodgers - Honeyconb
TTITLE7=George Jones - Walk Through This World With Me
TTITLE8=Ray Price - Heartaches By The Number
TTITLE9=Holly Dunn - Daddy's Hands
TTITLE10=Ricky Skaggs - I Wouldn't Change You If I Could
TTITLE11=Hank Williams Jr. - Born To Boogie
TTITLE12=Alan Jackson - I'd Love You All Over Again
TTITLE13=Dolly Parton/Ricky Van Shelton - Rockin' Years
TTITLE14=John Michael Montgomery - I Love The Way You Love Me
TTITLE15=Tanya Tucker - If Your Heart Ain't Busy Tonight
TTITLE16=Joe Diffie - If The Devil Danced In Empty Pockets
TTITLE17=Pam Tillis - Let The Pony Run
TTITLE18=Judds  - Have Mercy
TTITLE19=Lorrie Morgan - What Part Of No
EXTD=
EXTT0=
EXTT1=
EXTT2=
EXTT3=
EXTT4=
EXTT5=
EXTT6=
EXTT7=
EXTT8=
EXTT9=
EXTT10=
EXTT11=
EXTT12=
EXTT13=
EXTT14=
EXTT15=
EXTT16=
EXTT17=
EXTT18=
EXTT19=
PLAYORDER=
